<?xml version="1.0" standalone="no"?>
<!DOCTYPE svg PUBLIC "-//W3C//DTD SVG 20010904//EN"
 "http://www.w3.org/TR/2001/REC-SVG-20010904/DTD/svg10.dtd">
<svg version="1.0" xmlns="http://www.w3.org/2000/svg"
 width="30.000000pt" height="30.000000pt" viewBox="0 0 30.000000 30.000000"
 preserveAspectRatio="xMidYMid meet">
<metadata>
Created by potrace 1.16, written by Peter Selinger 2001-2019
</metadata>
<g transform="translate(0.000000,30.000000) scale(0.100000,-0.100000)"
fill="#000000" stroke="none">
<path d="M227 293 c-4 -3 -7 -19 -7 -34 0 -28 -1 -28 -50 -26 -50 2 -50 2 -56
-32 -4 -19 -24 -62 -45 -95 -22 -32 -39 -70 -39 -83 0 -20 5 -23 35 -23 29 0
37 5 51 33 25 48 64 91 95 104 53 22 85 109 53 144 -18 20 -27 23 -37 12z"/>
</g>
</svg>
