<?xml version="1.0" standalone="no"?>
<!DOCTYPE svg PUBLIC "-//W3C//DTD SVG 20010904//EN"
 "http://www.w3.org/TR/2001/REC-SVG-20010904/DTD/svg10.dtd">
<svg version="1.0" xmlns="http://www.w3.org/2000/svg"
 width="189.000000pt" height="217.000000pt" viewBox="0 0 189.000000 217.000000"
 preserveAspectRatio="xMidYMid meet">
<metadata>
Created by potrace 1.16, written by Peter Selinger 2001-2019
</metadata>
<g transform="translate(0.000000,217.000000) scale(0.100000,-0.100000)"
fill="#000000" stroke="none">
<path d="M363 2123 c-33 -37 -35 -40 -31 -105 3 -58 7 -70 31 -92 16 -14 35
-26 43 -26 17 0 17 -4 3 -53 l-10 -38 113 -121 112 -120 55 5 c49 5 58 3 98
-26 38 -26 42 -32 26 -38 -13 -5 -8 -8 17 -8 66 -1 66 13 1 64 -61 48 -69 59
-51 70 14 9 61 -19 130 -76 63 -52 68 -69 22 -69 -15 0 -74 -27 -132 -59
l-105 -58 -3 -56 c-2 -38 1 -59 11 -68 8 -8 92 -52 188 -99 l173 -85 21 -77
c11 -42 23 -80 27 -83 4 -4 10 9 13 29 9 44 30 47 71 10 16 -14 46 -39 67 -57
94 -78 88 -68 94 -150 7 -86 18 -96 47 -42 14 25 17 47 14 80 -3 25 -7 47 -9
49 -2 1 -42 34 -89 73 -65 54 -98 73 -138 84 -37 9 -51 17 -47 27 3 7 5 22 5
33 0 28 17 23 35 -10 11 -23 27 -33 72 -46 40 -12 79 -34 123 -70 124 -102
120 -95 120 -174 0 -77 11 -94 36 -56 13 19 15 37 9 80 -6 55 -8 56 -92 126
-65 55 -99 76 -146 90 -60 18 -63 21 -97 81 -39 71 -39 70 -97 168 l-42 71 31
-3 c28 -3 38 -15 117 -151 l86 -147 57 -16 c44 -13 78 -34 147 -91 l90 -74 7
-80 c3 -43 10 -79 14 -79 4 0 18 20 31 45 13 25 27 45 30 45 4 0 10 11 13 24
3 14 12 31 20 38 7 8 16 23 20 35 6 19 4 20 -34 13 -32 -6 -41 -4 -45 9 -2 9
-15 27 -28 41 -12 14 -39 45 -59 70 -20 25 -68 66 -107 90 -48 31 -71 53 -75
70 -27 125 -37 167 -46 182 -5 10 -10 56 -10 102 l0 85 -39 28 c-22 15 -44 38
-50 49 -10 22 -3 25 114 39 63 8 169 26 174 30 2 3 -79 5 -180 6 -101 0 -179
3 -173 5 7 3 10 13 7 24 -4 16 3 19 63 25 125 14 124 23 -1 25 -66 1 -114 4
-107 7 10 4 10 8 2 19 -18 20 -3 34 38 34 20 0 44 5 52 10 10 7 -7 10 -57 10
-58 0 -73 3 -73 15 0 8 -5 15 -11 15 -5 0 -8 4 -5 9 3 5 -1 14 -9 21 -17 14
-20 30 -6 30 5 0 36 -18 68 -40 39 -27 65 -39 76 -34 26 10 21 16 -38 54 -60
38 -65 46 -36 55 19 6 126 -57 164 -96 16 -17 53 -16 42 1 -2 4 -38 29 -80 56
-78 51 -89 64 -55 64 21 0 190 -107 190 -120 0 -20 35 -17 82 7 l53 27 -47 9
c-47 9 -61 19 -212 159 -23 22 -44 34 -50 29 -17 -12 -90 -31 -117 -30 -20 0
-19 3 11 14 46 18 14 19 -36 1 -22 -7 -59 -17 -84 -21 -25 -4 -69 -22 -97 -41
-49 -31 -93 -44 -93 -26 0 4 19 19 43 34 51 33 23 40 -30 7 -37 -23 -54 -19
-36 10 6 10 8 24 3 31 -4 7 -6 18 -4 24 7 19 -48 71 -78 74 -42 5 -87 -25
-109 -71 -24 -54 -23 -72 3 -127 12 -25 22 -50 23 -55 0 -6 6 -29 14 -51 12
-37 11 -44 -8 -82 -20 -39 -23 -41 -46 -30 -28 12 -30 20 -14 49 8 15 7 32 -5
64 -8 25 -11 47 -7 50 5 2 -2 26 -15 52 -13 25 -24 55 -24 67 0 33 38 100 67
118 l28 17 -27 1 c-31 0 -73 -32 -94 -72 -22 -42 -17 -100 11 -142 13 -20 21
-36 17 -36 -27 -1 -32 -17 -18 -58 8 -23 11 -44 6 -47 -11 -7 -25 19 -35 63
-4 18 -18 46 -32 63 -50 59 -41 154 19 204 l30 25 -37 0 c-30 0 -44 -7 -72
-37z"/>
<path d="M182 1876 c-12 -27 -22 -54 -22 -61 0 -7 51 -65 113 -129 89 -92 118
-116 140 -116 15 0 27 3 27 7 0 4 -49 57 -109 118 -93 94 -108 114 -104 136 2
14 -2 41 -10 60 l-14 34 -21 -49z"/>
<path d="M665 1491 c-24 -8 -98 -44 -105 -51 -10 -10 -46 -30 -82 -46 -41 -18
-43 -24 -32 -107 l6 -45 92 -46 c50 -25 96 -46 102 -46 6 0 17 -6 23 -14 7 -8
24 -17 39 -21 15 -4 29 -10 32 -13 3 -4 20 -14 39 -22 29 -14 36 -25 57 -89
13 -41 24 -81 25 -90 1 -33 28 45 28 84 1 77 2 76 -195 171 l-184 89 0 47 c0
25 -2 53 -5 61 -4 10 26 32 102 74 59 34 117 63 128 66 12 3 5 5 -15 5 -19 0
-44 -3 -55 -7z"/>
<path d="M685 1429 l-110 -61 3 -60 4 -60 183 -90 183 -89 16 -62 c10 -34 18
-70 19 -80 3 -30 22 -20 30 17 6 24 4 49 -5 78 -13 43 -14 43 -188 130 -96 47
-179 88 -183 90 -5 2 -11 31 -14 65 l-6 61 109 61 c60 33 100 61 89 61 -11 0
-69 -27 -130 -61z"/>
<path d="M20 455 l0 -115 40 0 c38 0 40 2 40 30 0 38 16 38 38 0 14 -25 23
-30 55 -30 41 0 47 13 20 42 -16 18 -16 21 0 47 25 42 22 85 -8 116 -23 23
-34 25 -105 25 l-80 0 0 -115z"/>
<path d="M260 455 l0 -115 35 0 35 0 0 115 0 115 -35 0 -35 0 0 -115z"/>
<path d="M395 548 c-29 -26 -41 -78 -31 -132 9 -48 56 -76 127 -76 72 1 89 15
89 74 0 44 -1 46 -29 46 -26 0 -30 -4 -33 -32 -3 -29 -6 -33 -28 -30 -57 8
-78 64 -40 102 24 24 53 26 74 4 14 -14 18 -13 41 3 30 22 31 28 3 47 -15 10
-45 16 -85 16 -50 0 -67 -4 -88 -22z"/>
<path d="M620 455 l0 -115 30 0 c29 0 30 2 30 45 l0 45 45 0 45 0 0 -45 c0
-45 0 -45 35 -45 l35 0 0 115 0 115 -35 0 c-34 0 -35 -1 -35 -40 l0 -40 -45 0
-45 0 0 40 c0 38 -2 40 -30 40 l-30 0 0 -115z"/>
<path d="M850 545 c0 -22 4 -25 35 -25 l35 0 0 -90 0 -90 40 0 40 0 0 91 0 91
35 -4 c33 -4 35 -2 35 24 l0 28 -110 0 -110 0 0 -25z"/>
<path d="M1080 455 l0 -115 35 0 35 0 0 48 1 47 22 -37 c12 -21 29 -38 38 -38
17 0 44 33 66 80 10 22 11 18 12 -37 l1 -63 30 0 30 0 0 115 0 115 -30 0 c-26
0 -35 -7 -58 -46 -50 -84 -47 -83 -73 -35 -13 24 -28 52 -34 62 -6 13 -21 19
-42 19 l-33 0 0 -115z"/>
<path d="M1425 493 c-21 -43 -43 -95 -51 -115 l-13 -38 32 0 c21 0 36 7 45 20
9 15 23 20 56 20 36 0 46 -4 51 -20 5 -16 15 -20 46 -20 42 0 44 1 30 28 -15
26 -68 143 -80 175 -9 22 -17 27 -45 27 -33 0 -36 -3 -71 -77z"/>
<path d="M1640 455 l0 -115 35 0 35 0 0 53 1 52 47 -53 c35 -39 54 -52 75 -52
l27 0 0 115 0 115 -35 0 -35 0 0 -51 0 -52 -25 27 c-14 16 -33 39 -42 52 -11
18 -24 24 -49 24 l-34 0 0 -115z"/>
<path d="M547 122 c-25 -27 -22 -80 6 -103 49 -41 121 -10 121 54 0 19 -6 42
-13 51 -19 23 -93 21 -114 -2z"/>
<path d="M1437 122 c-41 -45 -7 -122 53 -122 61 0 96 84 52 123 -25 23 -85 22
-105 -1z"/>
<path d="M1590 70 l0 -70 41 0 c53 0 79 15 79 45 0 14 -5 25 -11 25 -5 0 -7 5
-4 11 4 5 4 21 1 35 -6 21 -12 24 -56 24 l-50 0 0 -70z"/>
</g>
</svg>
