<?xml version="1.0" standalone="no"?>
<!DOCTYPE svg PUBLIC "-//W3C//DTD SVG 20010904//EN"
 "http://www.w3.org/TR/2001/REC-SVG-20010904/DTD/svg10.dtd">
<svg version="1.0" xmlns="http://www.w3.org/2000/svg"
 width="30.000000pt" height="30.000000pt" viewBox="0 0 30.000000 30.000000"
 preserveAspectRatio="xMidYMid meet">
<metadata>
Created by potrace 1.16, written by Peter Selinger 2001-2019
</metadata>
<g transform="translate(0.000000,30.000000) scale(0.100000,-0.100000)"
fill="#000000" stroke="none">
<path d="M100 293 c-1 -24 -18 -35 -39 -24 -18 10 -22 9 -28 -5 -4 -10 0 -22
10 -29 33 -24 15 -85 -25 -85 -10 0 -18 -7 -18 -15 0 -16 30 -18 85 -6 23 5
31 13 35 36 8 44 35 40 35 -5 0 -30 -4 -35 -25 -38 -50 -6 -78 -23 -83 -50 -3
-15 -8 -37 -12 -50 -6 -18 -4 -22 14 -22 14 0 22 8 27 28 3 15 7 32 8 37 2 6
10 -7 19 -28 14 -31 21 -37 47 -37 26 0 34 6 48 38 15 35 16 36 20 12 5 -30
20 -50 38 -50 11 0 13 10 8 43 -6 41 -11 48 -51 74 -15 10 -9 12 35 7 44 -6
52 -4 52 10 0 9 -8 16 -18 16 -40 0 -58 61 -25 85 10 8 14 19 10 30 -7 16 -9
16 -31 1 -23 -14 -24 -14 -30 9 -6 22 -12 25 -56 25 -28 0 -50 -3 -50 -7z"/>
</g>
</svg>
